<svg width="1136" height="941" viewBox="0 0 1136 941" fill="none" xmlns="http://www.w3.org/2000/svg">
<path d="M571.643 848.249C862.973 848.249 1099.14 832.614 1099.14 813.328C1099.14 794.041 862.973 778.406 571.643 778.406C280.312 778.406 44.1427 794.041 44.1427 813.328C44.1427 832.614 280.312 848.249 571.643 848.249Z" fill="#F2F2F2"/>
<path d="M551.425 431.028C465.481 431.028 403.774 486.167 403.774 614.826C403.774 760.639 465.481 799.236 551.425 799.236C637.369 799.236 702.752 756.963 702.752 614.826C702.752 462.886 637.369 431.028 551.425 431.028ZM551.99 750.836C492.463 750.836 461.364 715.913 461.364 614.92C461.364 525.808 493.736 478.815 553.263 478.815C612.79 478.815 645.162 509.683 645.162 614.92C645.162 713.367 611.517 750.836 551.99 750.836Z" fill="#2F2E41"/>
<path d="M352.311 697.535H316.776V592.895C316.776 587.338 314.568 582.007 310.638 578.077C306.708 574.147 301.378 571.94 295.82 571.94H287.494C284.742 571.94 282.017 572.482 279.475 573.535C276.932 574.588 274.622 576.132 272.676 578.077C270.73 580.023 269.187 582.334 268.133 584.876C267.08 587.419 266.538 590.144 266.538 592.895V697.535H166.308C164.246 697.535 162.219 697.002 160.424 695.988C158.629 694.974 157.126 693.513 156.062 691.747C154.997 689.981 154.408 687.969 154.35 685.908C154.292 683.847 154.767 681.806 155.73 679.983L261.813 479.203C263.135 476.699 263.937 473.954 264.169 471.132C264.402 468.311 264.06 465.471 263.165 462.786C262.269 460.1 260.839 457.623 258.96 455.505C257.081 453.388 254.793 451.673 252.232 450.464L245.97 447.506C241.108 445.21 235.548 444.871 230.443 446.559C225.337 448.248 221.076 451.834 218.541 456.576L89.1594 698.609C86.9562 702.731 85.8036 707.332 85.8036 712.005V712.005C85.8036 715.737 86.5386 719.432 87.9666 722.879C89.3946 726.327 91.4877 729.46 94.1264 732.098C96.7651 734.737 99.8976 736.83 103.345 738.258C106.793 739.686 110.488 740.421 114.219 740.421H266.538V806.588C266.538 809.887 267.188 813.153 268.45 816.201C269.713 819.248 271.563 822.018 273.895 824.35C276.228 826.683 278.997 828.533 282.045 829.795C285.092 831.058 288.359 831.707 291.657 831.707H291.657C294.956 831.707 298.222 831.058 301.27 829.795C304.317 828.533 307.087 826.683 309.419 824.35C311.752 822.018 313.602 819.248 314.864 816.201C316.127 813.153 316.776 809.887 316.776 806.588V740.421H352.311C357.998 740.421 363.452 738.162 367.473 734.14C371.494 730.119 373.754 724.665 373.754 718.978V718.978C373.754 713.291 371.494 707.837 367.473 703.815C363.452 699.794 357.998 697.535 352.311 697.535V697.535Z" fill="#6C63FF"/>
<path d="M1010.31 697.535H974.773V592.895C974.773 587.338 972.565 582.007 968.635 578.077C964.705 574.147 959.375 571.94 953.817 571.94H945.49C942.739 571.94 940.014 572.482 937.471 573.535C934.929 574.588 932.618 576.132 930.672 578.077C928.727 580.023 927.183 582.334 926.13 584.876C925.077 587.419 924.535 590.144 924.535 592.895V697.535H824.305C822.243 697.535 820.216 697.002 818.42 695.988C816.625 694.974 815.122 693.513 814.058 691.747C812.994 689.981 812.404 687.969 812.346 685.908C812.288 683.847 812.764 681.806 813.727 679.983L919.809 479.203C921.132 476.699 921.934 473.954 922.166 471.132C922.398 468.311 922.056 465.471 921.161 462.786C920.266 460.1 918.835 457.623 916.956 455.505C915.078 453.388 912.789 451.673 910.229 450.464L903.967 447.506C899.104 445.21 893.545 444.871 888.439 446.559C883.334 448.248 879.072 451.834 876.537 456.576L747.156 698.609C744.953 702.731 743.8 707.332 743.8 712.005V712.005C743.8 719.542 746.794 726.769 752.123 732.098C757.452 737.427 764.68 740.421 772.216 740.421H924.535V806.588C924.535 813.25 927.181 819.639 931.892 824.35C936.603 829.061 942.992 831.707 949.654 831.707V831.707C956.316 831.707 962.705 829.061 967.415 824.35C972.126 819.639 974.773 813.25 974.773 806.588V740.421H1010.31C1015.99 740.421 1021.45 738.162 1025.47 734.14C1029.49 730.119 1031.75 724.665 1031.75 718.978V718.978C1031.75 713.291 1029.49 707.837 1025.47 703.815C1021.45 699.794 1015.99 697.535 1010.31 697.535Z" fill="#6C63FF"/>
<path d="M362.113 685.282H326.579V580.642C326.579 577.89 326.037 575.165 324.984 572.623C323.931 570.08 322.387 567.77 320.441 565.824C318.495 563.878 316.185 562.335 313.643 561.282C311.1 560.229 308.375 559.686 305.623 559.686H297.297C291.739 559.686 286.409 561.894 282.479 565.824C278.549 569.754 276.341 575.084 276.341 580.642V685.282H176.111C174.049 685.282 172.022 684.749 170.227 683.735C168.431 682.72 166.929 681.259 165.864 679.493C164.8 677.727 164.21 675.716 164.152 673.655C164.094 671.594 164.57 669.553 165.533 667.73L271.615 466.949C272.938 464.446 273.74 461.701 273.972 458.879C274.204 456.058 273.862 453.218 272.967 450.532C272.072 447.847 270.642 445.37 268.763 443.252C266.884 441.134 264.595 439.419 262.035 438.21L255.773 435.253C250.91 432.957 245.351 432.618 240.245 434.306C235.14 435.995 230.879 439.581 228.344 444.323L98.962 686.356C96.7589 690.477 95.6062 695.079 95.6062 699.752V699.752C95.6062 707.288 98.6 714.516 103.929 719.845C109.258 725.174 116.486 728.168 124.022 728.168H276.341V794.335C276.341 797.634 276.991 800.9 278.253 803.948C279.515 806.995 281.365 809.764 283.698 812.097C286.031 814.429 288.8 816.28 291.847 817.542C294.895 818.804 298.161 819.454 301.46 819.454H301.46C308.122 819.454 314.511 816.808 319.222 812.097C323.932 807.386 326.579 800.997 326.579 794.335V728.168H362.113C364.929 728.168 367.717 727.613 370.319 726.536C372.921 725.458 375.285 723.879 377.276 721.887C379.267 719.896 380.846 717.532 381.924 714.931C383.002 712.329 383.556 709.541 383.556 706.725V706.725C383.556 703.909 383.002 701.12 381.924 698.519C380.846 695.917 379.267 693.553 377.276 691.562C375.285 689.571 372.921 687.992 370.319 686.914C367.717 685.836 364.929 685.282 362.113 685.282V685.282Z" stroke="#3F3D56" stroke-miterlimit="10"/>
<path d="M1028.69 685.282H993.153V580.642C993.153 575.084 990.945 569.754 987.015 565.824C983.085 561.894 977.755 559.686 972.197 559.686H963.87C961.118 559.686 958.393 560.229 955.851 561.282C953.308 562.335 950.998 563.878 949.052 565.824C947.106 567.77 945.563 570.08 944.51 572.623C943.457 575.165 942.915 577.89 942.915 580.642V685.282H842.684C840.623 685.282 838.596 684.749 836.8 683.735C835.005 682.72 833.502 681.259 832.438 679.493C831.374 677.727 830.784 675.716 830.726 673.655C830.668 671.594 831.144 669.553 832.107 667.73L938.189 466.949C939.512 464.446 940.313 461.701 940.546 458.879C940.778 456.058 940.436 453.218 939.541 450.532C938.646 447.847 937.215 445.37 935.336 443.252C933.457 441.134 931.169 439.419 928.609 438.21L922.347 435.253C917.484 432.957 911.925 432.618 906.819 434.306C901.714 435.995 897.452 439.581 894.917 444.323L765.536 686.356C763.333 690.477 762.18 695.079 762.18 699.752C762.18 707.288 765.174 714.516 770.503 719.845C775.832 725.174 783.059 728.168 790.596 728.168H942.915V794.335C942.915 800.997 945.561 807.386 950.272 812.097C954.982 816.808 961.372 819.454 968.034 819.454V819.454C974.696 819.454 981.085 816.808 985.795 812.097C990.506 807.386 993.153 800.997 993.153 794.335V728.168H1028.69C1031.5 728.168 1034.29 727.613 1036.89 726.536C1039.49 725.458 1041.86 723.879 1043.85 721.887C1045.84 719.896 1047.42 717.532 1048.5 714.931C1049.58 712.329 1050.13 709.541 1050.13 706.725V706.725C1050.13 701.038 1047.87 695.584 1043.85 691.562C1039.83 687.541 1034.37 685.282 1028.69 685.282V685.282Z" stroke="#3F3D56" stroke-miterlimit="10"/>
<path d="M571.03 420C485.086 420 423.379 475.139 423.379 603.798C423.379 749.611 485.086 788.208 571.03 788.208C656.974 788.208 722.357 745.935 722.357 603.798C722.357 451.858 656.974 420 571.03 420ZM571.595 739.808C512.068 739.808 480.969 704.886 480.969 603.892C480.969 514.78 513.341 467.787 572.868 467.787C632.395 467.787 664.767 498.655 664.767 603.892C664.767 702.339 631.122 739.808 571.595 739.808V739.808Z" stroke="#3F3D56" stroke-miterlimit="10"/>
<path d="M1037.86 683.568C1040.89 684.669 1044.14 685.052 1047.34 684.685C1050.54 684.319 1053.61 683.214 1056.32 681.458C1059.02 679.701 1061.28 677.341 1062.91 674.563C1064.55 671.785 1065.51 668.665 1065.74 665.449C1065.96 662.234 1065.43 659.011 1064.2 656.033C1062.96 653.056 1061.05 650.406 1058.62 648.293C1056.19 646.18 1053.29 644.66 1050.17 643.855C1047.05 643.05 1043.79 642.981 1040.63 643.653L1041.16 654.365L1036.09 645.184C1031.11 647.521 1027.27 651.738 1025.4 656.907C1024.74 658.718 1024.34 660.613 1024.21 662.537C1023.89 667.05 1025.05 671.545 1027.51 675.34C1029.98 679.135 1033.61 682.024 1037.86 683.568V683.568Z" fill="#57B894"/>
<path d="M1062.94 807.811C1061.15 798.701 1068.9 790.624 1076.56 785.375C1084.22 780.125 1093.17 774.967 1095.78 766.058C1099.53 753.254 1088.35 741.528 1079.64 731.416C1073.18 723.912 1067.64 715.669 1063.12 706.859C1061.31 703.326 1059.64 699.633 1059.17 695.693C1058.48 690.017 1060.3 684.369 1062.14 678.956C1068.26 660.921 1074.8 643.038 1081.77 625.306" stroke="#3F3D56" stroke-miterlimit="10"/>
<path d="M1038.72 680.81C1041.75 681.911 1044.99 682.294 1048.2 681.928C1051.4 681.561 1054.47 680.456 1057.17 678.7C1059.88 676.943 1062.13 674.583 1063.77 671.805C1065.4 669.027 1066.37 665.907 1066.59 662.691C1066.82 659.476 1066.29 656.253 1065.06 653.275C1063.82 650.298 1061.91 647.648 1059.48 645.535C1057.04 643.422 1054.15 641.902 1051.03 641.097C1047.91 640.292 1044.64 640.223 1041.49 640.895L1042.01 651.607L1036.94 642.426C1031.97 644.764 1028.13 648.98 1026.26 654.149C1025.6 655.96 1025.19 657.855 1025.06 659.779C1024.74 664.293 1025.9 668.787 1028.37 672.582C1030.83 676.378 1034.47 679.266 1038.72 680.81V680.81Z" stroke="#3F3D56" stroke-miterlimit="10"/>
<path d="M1060.4 621.606C1061.59 618.326 1063.58 615.398 1066.2 613.092C1068.82 610.785 1071.97 609.175 1075.38 608.409L1077.09 618.592L1080.27 607.897C1084.68 607.962 1088.95 609.428 1092.48 612.082C1096 614.736 1098.59 618.441 1099.87 622.663C1101.15 626.885 1101.06 631.404 1099.6 635.569C1098.15 639.733 1095.41 643.328 1091.78 645.833C1088.15 648.339 1083.81 649.625 1079.4 649.507C1074.99 649.389 1070.73 647.872 1067.24 645.176C1063.75 642.48 1061.2 638.744 1059.97 634.508C1058.74 630.271 1058.89 625.753 1060.4 621.606H1060.4Z" fill="#57B894"/>
<path d="M1061.54 617.929C1062.73 614.649 1064.72 611.721 1067.34 609.414C1069.96 607.108 1073.12 605.497 1076.52 604.731L1078.23 614.915L1081.41 604.22C1085.82 604.285 1090.1 605.751 1093.62 608.405C1097.15 611.059 1099.73 614.764 1101.02 618.986C1102.3 623.207 1102.2 627.727 1100.75 631.891C1099.29 636.056 1096.55 639.651 1092.92 642.156C1089.29 644.661 1084.95 645.948 1080.54 645.83C1076.13 645.712 1071.88 644.195 1068.38 641.499C1064.89 638.803 1062.35 635.067 1061.12 630.831C1059.89 626.594 1060.03 622.076 1061.54 617.929H1061.54Z" stroke="#3F3D56" stroke-miterlimit="10"/>
<path d="M1075.99 731.622C1080.79 733.365 1086.07 733.279 1090.82 731.381C1095.56 729.482 1099.44 725.905 1101.72 721.329C1103.99 716.754 1104.51 711.501 1103.16 706.571C1101.81 701.642 1098.7 697.38 1094.41 694.6L1091.97 702.819L1090.24 692.515C1090.22 692.507 1090.2 692.5 1090.18 692.495C1087.61 691.561 1084.89 691.143 1082.15 691.264C1079.42 691.385 1076.74 692.043 1074.27 693.2C1071.79 694.357 1069.56 695.992 1067.72 698.009C1065.87 700.026 1064.44 702.388 1063.51 704.958C1062.58 707.528 1062.16 710.256 1062.29 712.988C1062.41 715.719 1063.07 718.399 1064.23 720.876C1065.38 723.352 1067.02 725.575 1069.04 727.419C1071.06 729.263 1073.42 730.692 1075.99 731.622H1075.99Z" fill="#57B894"/>
<path d="M1076.98 727.898C1081.78 729.64 1087.06 729.554 1091.81 727.656C1096.55 725.758 1100.43 722.18 1102.71 717.604C1104.98 713.029 1105.5 707.776 1104.15 702.846C1102.8 697.917 1099.69 693.656 1095.4 690.875L1092.96 699.094L1091.23 688.791C1091.21 688.783 1091.19 688.776 1091.17 688.77C1088.6 687.837 1085.88 687.418 1083.14 687.539C1080.41 687.66 1077.73 688.318 1075.26 689.475C1072.78 690.633 1070.55 692.267 1068.71 694.284C1066.86 696.302 1065.43 698.663 1064.5 701.233C1063.57 703.803 1063.15 706.532 1063.28 709.263C1063.4 711.994 1064.06 714.675 1065.22 717.151C1066.38 719.627 1068.01 721.851 1070.03 723.695C1072.05 725.539 1074.41 726.967 1076.98 727.898H1076.98Z" stroke="#3F3D56" stroke-miterlimit="10"/>
<path d="M1054.32 766.185C1055.15 770.885 1057.57 775.159 1061.17 778.288C1064.77 781.418 1069.34 783.214 1074.11 783.374C1078.88 783.535 1083.56 782.051 1087.36 779.17C1091.17 776.29 1093.87 772.189 1095.01 767.555C1096.15 762.921 1095.66 758.036 1093.63 753.719C1091.59 749.402 1088.14 745.915 1083.84 743.844C1079.54 741.773 1074.66 741.243 1070.01 742.344C1065.37 743.444 1061.25 746.108 1058.33 749.888L1067.61 763.844L1054.94 756.437C1053.95 759.59 1053.74 762.933 1054.32 766.185V766.185Z" fill="#57B894"/>
<path d="M1055.18 763.427C1056.01 768.127 1058.42 772.401 1062.03 775.53C1065.63 778.66 1070.2 780.456 1074.97 780.616C1079.74 780.777 1084.42 779.293 1088.22 776.412C1092.03 773.532 1094.73 769.431 1095.87 764.797C1097.01 760.163 1096.52 755.278 1094.48 750.961C1092.45 746.644 1088.99 743.158 1084.7 741.086C1080.4 739.015 1075.52 738.485 1070.87 739.586C1066.23 740.686 1062.1 743.35 1059.19 747.13L1068.46 761.086L1055.79 753.679C1054.81 756.832 1054.6 760.175 1055.18 763.427V763.427Z" stroke="#3F3D56" stroke-miterlimit="10"/>
<path d="M40.0067 734.267C41.997 734.99 44.1282 735.242 46.2322 735.001C48.3362 734.761 50.3556 734.035 52.1312 732.881C53.9068 731.726 55.39 730.176 56.464 728.35C57.538 726.525 58.1734 724.475 58.3201 722.363C58.4668 720.25 58.1208 718.132 57.3094 716.176C56.498 714.22 55.2433 712.479 53.6442 711.091C52.0452 709.702 50.1455 708.704 48.0949 708.175C46.0444 707.646 43.8989 707.6 41.8277 708.042L42.17 715.08L38.8401 709.048C35.572 710.584 33.0473 713.354 31.8208 716.75C31.3852 717.94 31.1203 719.185 31.0342 720.449C30.824 723.415 31.5862 726.368 33.2053 728.861C34.8244 731.355 37.2122 733.252 40.0067 734.267V734.267Z" fill="#57B894"/>
<path d="M56.483 815.897C55.3076 809.911 60.401 804.605 65.4322 801.156C70.4633 797.707 76.3419 794.318 78.0586 788.464C80.5257 780.052 73.1769 772.348 67.4571 765.704C63.2136 760.774 59.5695 755.358 56.6009 749.569C55.3103 747.296 54.4312 744.812 54.0042 742.233C53.5532 738.504 54.7512 734.794 55.9581 731.237C59.9787 719.388 64.2775 707.638 68.8543 695.988" stroke="#3F3D56" stroke-miterlimit="10"/>
<path d="M40.5698 732.455C42.5601 733.178 44.6913 733.43 46.7953 733.189C48.8993 732.949 50.9187 732.223 52.6943 731.069C54.4699 729.914 55.9531 728.364 57.0271 726.538C58.1011 724.713 58.7365 722.663 58.8832 720.551C59.0299 718.438 58.6839 716.32 57.8725 714.364C57.061 712.408 55.8064 710.667 54.2073 709.279C52.6083 707.89 50.7086 706.892 48.6581 706.363C46.6075 705.834 44.462 705.788 42.3908 706.23L42.7331 713.268L39.4032 707.236C36.1352 708.772 33.6104 711.542 32.3839 714.938C31.9483 716.128 31.6835 717.373 31.5973 718.637C31.3871 721.603 32.1493 724.556 33.7684 727.049C35.3875 729.543 37.7753 731.44 40.5698 732.455V732.455Z" stroke="#3F3D56" stroke-miterlimit="10"/>
<path d="M54.8116 693.557C55.5927 691.402 56.9037 689.478 58.6236 687.963C60.3436 686.447 62.4174 685.389 64.6537 684.886L65.7796 691.577L67.867 684.55C70.7652 684.593 73.5747 685.556 75.89 687.299C78.2052 689.043 79.9064 691.478 80.7479 694.251C81.5894 697.025 81.5276 699.994 80.5715 702.731C79.6154 705.467 77.8145 707.829 75.4287 709.475C73.043 711.121 70.1958 711.966 67.2984 711.888C64.4009 711.811 61.603 710.814 59.3088 709.043C57.0145 707.272 55.3425 704.817 54.5341 702.034C53.7258 699.25 53.823 696.282 54.8116 693.557V693.557Z" fill="#57B894"/>
<path d="M55.5625 691.141C56.3436 688.986 57.6545 687.062 59.3745 685.547C61.0945 684.031 63.1682 682.973 65.4046 682.47L66.5305 689.161L68.6178 682.134C71.516 682.177 74.3256 683.14 76.6408 684.883C78.9561 686.627 80.6573 689.062 81.4987 691.835C82.3402 694.609 82.2785 697.578 81.3224 700.315C80.3663 703.051 78.5654 705.413 76.1796 707.059C73.7938 708.705 70.9467 709.55 68.0492 709.472C65.1517 709.395 62.3539 708.398 60.0596 706.627C57.7653 704.856 56.0933 702.401 55.285 699.618C54.4767 696.834 54.5738 693.866 55.5625 691.141V691.141Z" stroke="#3F3D56" stroke-miterlimit="10"/>
<path d="M65.0568 765.84C68.2133 766.985 71.6806 766.928 74.798 765.681C77.9154 764.434 80.4649 762.083 81.9605 759.077C83.4561 756.071 83.7932 752.619 82.9076 749.38C82.022 746.142 79.9756 743.342 77.1585 741.515L75.5546 746.915L74.4172 740.146C74.406 740.14 74.3944 740.136 74.3824 740.132C72.6941 739.518 70.9013 739.243 69.1066 739.322C67.3118 739.402 65.5503 739.834 63.9226 740.594C62.295 741.355 60.8331 742.428 59.6206 743.754C58.408 745.079 57.4686 746.631 56.856 748.32C56.2433 750.008 55.9695 751.801 56.0502 753.596C56.1308 755.391 56.5643 757.152 57.3259 758.779C58.0875 760.406 59.1623 761.867 60.4888 763.079C61.8153 764.29 63.3676 765.228 65.0568 765.84V765.84Z" fill="#57B894"/>
<path d="M65.7074 763.393C68.8638 764.538 72.3312 764.481 75.4486 763.234C78.566 761.987 81.1154 759.636 82.611 756.63C84.1066 753.623 84.4437 750.172 83.5582 746.933C82.6726 743.695 80.6262 740.895 77.809 739.068L76.2051 744.468L75.0678 737.698C75.0566 737.693 75.0449 737.689 75.033 737.685C73.345 737.073 71.553 736.799 69.7592 736.879C67.9654 736.959 66.2049 737.392 64.5784 738.153C61.2934 739.689 58.7532 742.467 57.5165 745.876C56.2799 749.285 56.4481 753.046 57.9842 756.331C59.5203 759.616 62.2984 762.156 65.7074 763.393V763.393Z" stroke="#3F3D56" stroke-miterlimit="10"/>
<path d="M50.8213 788.548C51.364 791.636 52.952 794.444 55.3191 796.5C57.6861 798.556 60.6882 799.736 63.8219 799.842C66.9555 799.947 70.0302 798.972 72.5302 797.08C75.0302 795.187 76.8035 792.493 77.5527 789.448C78.302 786.404 77.9815 783.194 76.6452 780.358C75.3089 777.521 73.0379 775.231 70.2131 773.87C67.3884 772.509 64.1816 772.161 61.1307 772.884C58.0797 773.607 55.3701 775.357 53.4563 777.84L59.5486 787.01L51.2242 782.143C50.5788 784.215 50.4406 786.412 50.8213 788.548V788.548Z" fill="#57B894"/>
<path d="M51.3844 786.736C51.9271 789.824 53.5151 792.632 55.8822 794.688C58.2492 796.744 61.2513 797.924 64.385 798.029C67.5186 798.135 70.5933 797.16 73.0933 795.267C75.5933 793.375 77.3666 790.681 78.1158 787.636C78.8651 784.591 78.5447 781.382 77.2083 778.545C75.872 775.709 73.601 773.418 70.7762 772.058C67.9515 770.697 64.7447 770.349 61.6938 771.072C58.6428 771.795 55.9332 773.545 54.0194 776.028L60.1117 785.198L51.7873 780.331C51.1419 782.403 51.0037 784.599 51.3844 786.736V786.736Z" stroke="#3F3D56" stroke-miterlimit="10"/>
<path d="M894 845H658C657.735 845 657.48 845.158 657.293 845.439C657.105 845.721 657 846.102 657 846.5C657 846.898 657.105 847.279 657.293 847.561C657.48 847.842 657.735 848 658 848H894C894.265 848 894.52 847.842 894.707 847.561C894.895 847.279 895 846.898 895 846.5C895 846.102 894.895 845.721 894.707 845.439C894.52 845.158 894.265 845 894 845Z" fill="#3F3D56"/>
<path d="M685 241.804C638.38 234.364 585.29 230.394 530 230.394C479.4 230.394 430.65 233.714 387.02 239.974C387.03 239.304 387.04 238.634 387.07 237.964C388.226 199.074 404.549 162.178 432.55 135.164C460.55 108.15 498.007 93.1592 536.914 93.3969C575.821 93.6346 613.091 109.081 640.759 136.436C668.428 163.79 684.299 200.882 684.98 239.784C684.99 240.464 685 241.134 685 241.804Z" fill="#6C63FF"/>
<g opacity="0.1">
<path opacity="0.1" d="M555.55 93.3413C534.857 90.5463 513.808 92.1304 493.766 97.9911C473.724 103.852 455.138 113.858 439.211 127.362C423.284 140.866 410.372 157.565 401.312 176.378C392.252 195.192 387.246 215.698 386.619 236.57C386.589 237.24 386.579 237.91 386.569 238.58C399.531 236.72 412.954 235.127 426.734 233.796C428.42 199.025 442.225 165.941 465.755 140.285C489.285 114.629 521.054 98.0206 555.55 93.3413V93.3413Z" fill="white"/>
</g>
<path d="M750.18 253.624C728.72 247.806 706.953 243.186 684.98 239.784C648.966 234.203 612.658 230.714 576.24 229.334C561.07 228.714 545.62 228.394 530 228.394C517.62 228.394 505.34 228.594 493.23 228.994C457.706 230.044 422.266 233.038 387.07 237.964C361.016 241.552 335.214 246.782 309.82 253.624C250.61 269.994 218 291.934 218 315.394C218 338.854 250.61 360.794 309.82 377.164C351.46 388.684 402.8 396.534 458.74 400.134C481.83 401.634 505.7 402.394 530 402.394C554.38 402.394 578.33 401.624 601.49 400.124C652.4 396.834 699.5 390.024 738.92 380.124C739.13 380.064 739.33 380.014 739.54 379.964C742.2 379.304 744.82 378.614 747.41 377.924C748.34 377.664 749.26 377.414 750.18 377.164C750.232 377.143 750.285 377.126 750.34 377.114C751.22 376.874 752.09 376.624 752.96 376.384C754.7 375.884 756.42 375.394 758.11 374.884C758.19 374.864 758.26 374.844 758.33 374.824C759.8 374.384 761.24 373.944 762.67 373.504C763.84 373.134 765 372.774 766.15 372.404C766.99 372.134 767.82 371.864 768.64 371.594C769.24 371.394 769.83 371.204 770.41 371.004C771.2 370.744 771.99 370.474 772.77 370.204C773.1 370.094 773.43 369.984 773.75 369.864C774.5 369.614 775.23 369.354 775.96 369.094C776.75 368.814 777.54 368.524 778.32 368.244C778.97 368.014 779.62 367.774 780.26 367.534C780.8 367.324 781.33 367.124 781.87 366.924C783.34 366.374 784.78 365.804 786.2 365.244C786.91 364.954 787.62 364.674 788.32 364.384C789.01 364.104 789.71 363.814 790.39 363.524C791.51 363.054 792.61 362.584 793.69 362.114C794.21 361.874 794.74 361.644 795.25 361.424C795.64 361.244 796.02 361.074 796.41 360.894C796.69 360.774 796.97 360.644 797.24 360.514C798.25 360.054 799.25 359.584 800.23 359.114C803.99 357.314 807.5 355.474 810.76 353.594C831.21 341.884 842 328.894 842 315.394C842 291.934 809.39 269.994 750.18 253.624ZM749.64 375.244C707.95 386.774 656.47 394.624 600.38 398.194C577.57 399.644 553.99 400.394 530 400.394C506.09 400.394 482.59 399.654 459.85 398.204C403.67 394.644 352.11 386.794 310.36 375.244C252.09 359.124 220 337.874 220 315.394C220.003 313.408 220.252 311.429 220.74 309.504C225.84 289.224 257.21 270.244 310.36 255.544C335.562 248.755 361.166 243.555 387.02 239.974C422.428 235.02 458.082 232.016 493.82 230.974C505.74 230.584 517.8 230.391 530 230.394C545.41 230.394 560.65 230.704 575.63 231.304C612.26 232.672 648.779 236.178 685 241.804C706.783 245.191 728.363 249.778 749.64 255.544C802.78 270.244 834.14 289.214 839.25 309.484C839.746 311.415 839.998 313.4 840 315.394C840 337.874 807.91 359.124 749.64 375.244V375.244Z" fill="#3F3D56"/>
<path d="M841.43 316.304C841.43 329.664 830.42 342.304 810.76 353.594C807.49 355.474 803.97 357.314 800.23 359.114C799.25 359.584 798.25 360.054 797.24 360.514C796.97 360.644 796.69 360.774 796.41 360.894C796.02 361.074 795.64 361.244 795.25 361.424C794.74 361.644 794.21 361.874 793.69 362.114C792.61 362.584 791.51 363.054 790.39 363.524C789.71 363.814 789.01 364.104 788.32 364.384C787.62 364.674 786.91 364.954 786.2 365.244C784.78 365.804 783.34 366.374 781.87 366.924C781.33 367.124 780.8 367.324 780.26 367.534C779.62 367.774 778.97 368.014 778.32 368.244C777.54 368.524 776.75 368.814 775.96 369.094C775.23 369.354 774.5 369.614 773.75 369.864C773.43 369.984 773.1 370.094 772.77 370.204C771.99 370.474 771.2 370.744 770.41 371.004C769.83 371.204 769.24 371.394 768.64 371.594C767.82 371.864 766.99 372.134 766.15 372.404C765 372.774 763.84 373.134 762.67 373.504C761.24 373.944 759.8 374.384 758.33 374.824C758.26 374.844 758.19 374.864 758.11 374.884C756.42 375.394 754.7 375.884 752.96 376.384C752.09 376.624 751.22 376.874 750.34 377.114C750.285 377.126 750.232 377.143 750.18 377.164C749.26 377.414 748.34 377.664 747.41 377.924C744.83 378.604 742.2 379.294 739.54 379.964C739.33 380.014 739.13 380.064 738.92 380.124C700.57 389.704 653.52 396.684 601.45 400.054C578.64 401.524 554.86 402.304 530.43 402.304C505.78 402.304 481.8 401.514 458.81 400.014C321.57 391.064 219.43 356.984 219.43 316.304C219.441 313.829 219.818 311.369 220.55 309.004C220.61 309.174 220.67 309.334 220.74 309.504C235.01 346.984 336.28 377.274 467.68 384.664C487.81 385.804 508.66 386.394 530 386.394C551.43 386.394 572.36 385.794 592.57 384.654C723.86 377.234 825.03 346.934 839.25 309.484C839.49 308.884 839.7 308.284 839.88 307.684C840.894 310.445 841.418 313.362 841.43 316.304V316.304Z" fill="#3F3D56"/>
<path d="M309.669 305.54C293.027 305.54 275.339 301.959 275.339 295.323C275.339 288.687 293.027 285.106 309.669 285.106C326.312 285.106 344 288.687 344 295.323C344 301.959 326.312 305.54 309.669 305.54ZM309.669 287.106C290.616 287.106 277.339 291.437 277.339 295.323C277.339 299.209 290.616 303.54 309.669 303.54C328.722 303.54 342 299.209 342 295.323C342 291.437 328.722 287.106 309.669 287.106V287.106Z" fill="#3F3D56"/>
<path d="M380.669 352.54C364.027 352.54 346.339 348.959 346.339 342.323C346.339 335.687 364.027 332.106 380.669 332.106C397.312 332.106 415 335.687 415 342.323C415 348.959 397.312 352.54 380.669 352.54ZM380.669 334.106C361.616 334.106 348.339 338.437 348.339 342.323C348.339 346.209 361.616 350.54 380.669 350.54C399.722 350.54 413 346.209 413 342.323C413 338.437 399.722 334.106 380.669 334.106V334.106Z" fill="#3F3D56"/>
<path d="M749.669 305.54C733.027 305.54 715.339 301.959 715.339 295.323C715.339 288.687 733.027 285.106 749.669 285.106C766.312 285.106 784 288.687 784 295.323C784 301.959 766.312 305.54 749.669 305.54ZM749.669 287.106C730.616 287.106 717.339 291.437 717.339 295.323C717.339 299.209 730.616 303.54 749.669 303.54C768.722 303.54 782 299.209 782 295.323C782 291.437 768.722 287.106 749.669 287.106V287.106Z" fill="#3F3D56"/>
<path d="M678.669 352.54C662.027 352.54 644.339 348.959 644.339 342.323C644.339 335.687 662.027 332.106 678.669 332.106C695.312 332.106 713 335.687 713 342.323C713 348.959 695.312 352.54 678.669 352.54ZM678.669 334.106C659.616 334.106 646.339 338.437 646.339 342.323C646.339 346.209 659.616 350.54 678.669 350.54C697.722 350.54 711 346.209 711 342.323C711 338.437 697.722 334.106 678.669 334.106V334.106Z" fill="#3F3D56"/>
<path d="M529.669 374.54C513.027 374.54 495.339 370.959 495.339 364.323C495.339 357.687 513.027 354.106 529.669 354.106C546.312 354.106 564 357.687 564 364.323C564 370.959 546.312 374.54 529.669 374.54ZM529.669 356.106C510.616 356.106 497.339 360.437 497.339 364.323C497.339 368.209 510.616 372.54 529.669 372.54C548.722 372.54 562 368.209 562 364.323C562 360.437 548.722 356.106 529.669 356.106V356.106Z" fill="#3F3D56"/>
<path d="M546.978 589.717C570.181 589.717 588.99 570.907 588.99 547.704C588.99 524.502 570.181 505.692 546.978 505.692C523.775 505.692 504.966 524.502 504.966 547.704C504.966 570.907 523.775 589.717 546.978 589.717Z" fill="#2F2E41"/>
<path d="M531.002 575.307L510.555 585.546L516.27 596.958L536.717 586.719L531.002 575.307Z" fill="#2F2E41"/>
<path d="M518.966 595.8C520.178 593.961 517.186 589.849 512.282 586.616C507.378 583.382 502.419 582.252 501.207 584.091C499.994 585.93 502.987 590.042 507.891 593.275C512.795 596.509 517.753 597.639 518.966 595.8Z" fill="#2F2E41"/>
<path d="M562.954 575.307L557.239 586.719L577.686 596.959L583.401 585.546L562.954 575.307Z" fill="#2F2E41"/>
<path d="M586.065 593.275C590.969 590.042 593.962 585.93 592.749 584.091C591.537 582.252 586.578 583.382 581.674 586.616C576.77 589.849 573.777 593.961 574.99 595.8C576.203 597.639 581.161 596.509 586.065 593.275Z" fill="#2F2E41"/>
<path d="M544.037 551.786C551.967 551.786 558.395 545.358 558.395 537.428C558.395 529.498 551.967 523.069 544.037 523.069C536.107 523.069 529.678 529.498 529.678 537.428C529.678 545.358 536.107 551.786 544.037 551.786Z" fill="white"/>
<path d="M547.529 534.675C549.391 532.814 549.38 529.785 547.505 527.911C545.631 526.036 542.602 526.026 540.741 527.887C538.88 529.748 538.89 532.777 540.765 534.651C542.639 536.526 545.668 536.536 547.529 534.675Z" fill="#3F3D56"/>
<path d="M580.12 501.999C580.752 486.446 567.347 473.272 550.179 472.574C533.011 471.877 518.582 483.92 517.95 499.474C517.318 515.028 529.252 518.561 546.42 519.259C563.587 519.956 579.488 517.553 580.12 501.999Z" fill="#6C63FF"/>
<path d="M604.337 569.703C607.1 567.331 603.214 558.272 595.657 549.469C588.101 540.667 579.734 535.454 576.971 537.826C574.207 540.198 578.093 549.258 585.65 558.06C593.207 566.863 601.573 572.076 604.337 569.703Z" fill="#2F2E41"/>
<path d="M508.423 558.06C515.98 549.258 519.866 540.198 517.102 537.826C514.339 535.454 505.973 540.667 498.416 549.469C490.859 558.272 486.973 567.331 489.737 569.703C492.5 572.076 500.866 566.863 508.423 558.06Z" fill="#2F2E41"/>
<path d="M558.517 564.261C558.971 566.759 558.415 569.335 556.97 571.422C555.526 573.51 553.311 574.938 550.813 575.393C548.316 575.848 545.74 575.291 543.652 573.847C541.564 572.402 540.136 570.187 539.681 567.69L539.678 567.671C538.736 562.469 542.758 560.628 547.96 559.686C553.163 558.745 557.575 559.059 558.517 564.261Z" fill="white"/>
<path d="M476 592.394C475.47 592.394 474.961 592.183 474.586 591.808C474.211 591.433 474 590.924 474 590.394V472.394C474 471.864 474.211 471.355 474.586 470.98C474.961 470.605 475.47 470.394 476 470.394C476.53 470.394 477.039 470.605 477.414 470.98C477.789 471.355 478 471.864 478 472.394V590.394C478 590.924 477.789 591.433 477.414 591.808C477.039 592.183 476.53 592.394 476 592.394Z" fill="#CCCCCC"/>
<path d="M446 698.394C445.47 698.394 444.961 698.183 444.586 697.808C444.211 697.433 444 696.924 444 696.394V610.394C444 609.864 444.211 609.355 444.586 608.98C444.961 608.605 445.47 608.394 446 608.394C446.53 608.394 447.039 608.605 447.414 608.98C447.789 609.355 448 609.864 448 610.394V696.394C448 696.924 447.789 697.433 447.414 697.808C447.039 698.183 446.53 698.394 446 698.394V698.394Z" fill="#CCCCCC"/>
<path d="M523 627.394C522.47 627.394 521.961 627.183 521.586 626.808C521.211 626.433 521 625.924 521 625.394V507.394C521 506.864 521.211 506.355 521.586 505.98C521.961 505.605 522.47 505.394 523 505.394C523.53 505.394 524.039 505.605 524.414 505.98C524.789 506.355 525 506.864 525 507.394V625.394C525 625.924 524.789 626.433 524.414 626.808C524.039 627.183 523.53 627.394 523 627.394Z" fill="#CCCCCC"/>
<path d="M494 712.394C493.47 712.394 492.961 712.183 492.586 711.808C492.211 711.433 492 710.924 492 710.394V662.394C492 661.864 492.211 661.355 492.586 660.98C492.961 660.605 493.47 660.394 494 660.394C494.53 660.394 495.039 660.605 495.414 660.98C495.789 661.355 496 661.864 496 662.394V710.394C496 710.924 495.789 711.433 495.414 711.808C495.039 712.183 494.53 712.394 494 712.394V712.394Z" fill="#CCCCCC"/>
<path d="M535 466.394C534.47 466.394 533.961 466.183 533.586 465.808C533.211 465.433 533 464.924 533 464.394V416.394C533 415.864 533.211 415.355 533.586 414.98C533.961 414.605 534.47 414.394 535 414.394C535.53 414.394 536.039 414.605 536.414 414.98C536.789 415.355 537 415.864 537 416.394V464.394C537 464.924 536.789 465.433 536.414 465.808C536.039 466.183 535.53 466.394 535 466.394V466.394Z" fill="#CCCCCC"/>
<path d="M435 487.394C434.47 487.394 433.961 487.183 433.586 486.808C433.211 486.433 433 485.924 433 485.394V437.394C433 436.864 433.211 436.355 433.586 435.98C433.961 435.605 434.47 435.394 435 435.394C435.53 435.394 436.039 435.605 436.414 435.98C436.789 436.355 437 436.864 437 437.394V485.394C437 485.924 436.789 486.433 436.414 486.808C436.039 487.183 435.53 487.394 435 487.394V487.394Z" fill="#CCCCCC"/>
<path d="M609 492.394C608.47 492.394 607.961 492.183 607.586 491.808C607.211 491.433 607 490.924 607 490.394V442.394C607 441.864 607.211 441.355 607.586 440.98C607.961 440.605 608.47 440.394 609 440.394C609.53 440.394 610.039 440.605 610.414 440.98C610.789 441.355 611 441.864 611 442.394V490.394C611 490.924 610.789 491.433 610.414 491.808C610.039 492.183 609.53 492.394 609 492.394Z" fill="#CCCCCC"/>
<path d="M605 642.394C604.47 642.394 603.961 642.183 603.586 641.808C603.211 641.433 603 640.924 603 640.394V582.394C603 581.864 603.211 581.355 603.586 580.98C603.961 580.605 604.47 580.394 605 580.394C605.53 580.394 606.039 580.605 606.414 580.98C606.789 581.355 607 581.864 607 582.394V640.394C607 640.924 606.789 641.433 606.414 641.808C606.039 642.183 605.53 642.394 605 642.394Z" fill="#CCCCCC"/>
<path d="M565 693.394C564.47 693.394 563.961 693.183 563.586 692.808C563.211 692.433 563 691.924 563 691.394V605.394C563 604.864 563.211 604.355 563.586 603.98C563.961 603.605 564.47 603.394 565 603.394C565.53 603.394 566.039 603.605 566.414 603.98C566.789 604.355 567 604.864 567 605.394V691.394C567 691.924 566.789 692.433 566.414 692.808C566.039 693.183 565.53 693.394 565 693.394Z" fill="#CCCCCC"/>
<path d="M573 546.394C572.47 546.394 571.961 546.183 571.586 545.808C571.211 545.433 571 544.924 571 544.394V426.394C571 425.864 571.211 425.355 571.586 424.98C571.961 424.605 572.47 424.394 573 424.394C573.53 424.394 574.039 424.605 574.414 424.98C574.789 425.355 575 425.864 575 426.394V544.394C575 544.924 574.789 545.433 574.414 545.808C574.039 546.183 573.53 546.394 573 546.394Z" fill="#CCCCCC"/>
<path d="M818.193 797.491C821.056 795.094 817.187 785.759 809.553 776.641C801.918 767.522 793.408 762.073 790.545 764.47C787.683 766.866 791.551 776.202 799.186 785.32C806.821 794.439 815.331 799.888 818.193 797.491Z" fill="#2F2E41"/>
<path d="M799.42 787.121C806.941 764.557 794.746 740.167 772.181 732.645C749.617 725.124 725.227 737.318 717.705 759.883C710.183 782.448 722.378 806.838 744.943 814.36C767.508 821.881 791.898 809.686 799.42 787.121Z" fill="#2F2E41"/>
<path d="M776.791 807.302H763.707V830.744H776.791V807.302Z" fill="#2F2E41"/>
<path d="M750.624 807.302H737.54V830.744H750.624V807.302Z" fill="#2F2E41"/>
<path d="M765.888 835.105C771.91 835.105 776.791 833.274 776.791 831.016C776.791 828.758 771.91 826.928 765.888 826.928C759.866 826.928 754.985 828.758 754.985 831.016C754.985 833.274 759.866 835.105 765.888 835.105Z" fill="#2F2E41"/>
<path d="M739.721 834.56C745.742 834.56 750.624 832.729 750.624 830.471C750.624 828.213 745.742 826.382 739.721 826.382C733.699 826.382 728.817 828.213 728.817 830.471C728.817 832.729 733.699 834.56 739.721 834.56Z" fill="#2F2E41"/>
<path d="M745.039 719.365C748.885 703.878 765.86 694.765 782.954 699.009C800.048 703.254 810.788 719.25 806.943 734.737C803.097 750.224 790.339 750.274 773.245 746.029C756.15 741.784 741.194 734.853 745.039 719.365Z" fill="#CCCCCC"/>
<path d="M729.51 762.747C731.11 759.373 723.696 752.507 712.951 747.411C702.206 742.315 692.198 740.918 690.598 744.291C688.998 747.664 696.412 754.53 707.157 759.627C717.903 764.723 727.91 766.12 729.51 762.747Z" fill="#2F2E41"/>
<path d="M752.124 778.773C760.054 778.773 766.482 772.345 766.482 764.415C766.482 756.485 760.054 750.056 752.124 750.056C744.194 750.056 737.765 756.485 737.765 764.415C737.765 772.345 744.194 778.773 752.124 778.773Z" fill="white"/>
<path d="M746.222 764.054C748.866 764.054 751.008 761.911 751.008 759.268C751.008 756.625 748.866 754.482 746.222 754.482C743.579 754.482 741.436 756.625 741.436 759.268C741.436 761.911 743.579 764.054 746.222 764.054Z" fill="#3F3D56"/>
<path d="M752 800.394C755.314 800.394 758 797.708 758 794.394C758 791.08 755.314 788.394 752 788.394C748.686 788.394 746 791.08 746 794.394C746 797.708 748.686 800.394 752 800.394Z" fill="white"/>
</svg>
